<?xml version="1.0" encoding="UTF-8" standalone="no"?>
<svg xmlns:inkscape="http://www.inkscape.org/namespaces/inkscape" xmlns:sodipodi="http://sodipodi.sourceforge.net/DTD/sodipodi-0.dtd" xmlns="http://www.w3.org/2000/svg" xmlns:svg="http://www.w3.org/2000/svg" version="1.1" viewBox="0 0 156 189" id="svg2735" sodipodi:docname="leek8_front.svg" inkscape:version="1.3.2 (1:1.3.2+202311252150+091e20ef0f)" width="156" height="189">
  <sodipodi:namedview id="namedview2737" pagecolor="#ffffff" bordercolor="#666666" borderopacity="1.0" inkscape:showpageshadow="2" inkscape:pageopacity="0.0" inkscape:pagecheckerboard="0" inkscape:deskcolor="#d1d1d1" showgrid="true" inkscape:zoom="32.394704" inkscape:cx="84.319338" inkscape:cy="159.93355" inkscape:window-width="2560" inkscape:window-height="1376" inkscape:window-x="2560" inkscape:window-y="27" inkscape:window-maximized="1" inkscape:current-layer="svg2735">
    <inkscape:grid type="xygrid" id="grid3744" spacingx="78" originx="0" originy="0" spacingy="1" units="px" visible="true"/>
  </sodipodi:namedview>
  <defs id="defs2633">
    <filter id="s" color-interpolation-filters="sRGB" x="-0.076962569" y="-0.058495586" width="1.1496063" height="1.1156328">
      <feGaussianBlur result="result6" stdDeviation="4.2" id="feGaussianBlur2626"/>
      <feComposite in="SourceGraphic" in2="result6" operator="atop" result="result8" id="feComposite2628"/>
      <feComposite in="result8" in2="SourceAlpha" operator="atop" result="result9" id="feComposite2630"/>
    </filter>
  </defs>
  <g filter="url(#s)">
  <path d="M 66.891339,6.473991 68.769846,1.3165117 91.146871,7.3975582 C 81.03157,36.056407 90.352984,58.382525 101.71973,80.044813 L 85.718685,83.305588 61.751682,30.023606 Z" fill="#869A3F" stroke="#000000" stroke-miterlimit="4.6462" stroke-width="2.18308" id="leaf10"/>
  <path d="M 111.1831,21.036412 110.78464,16.154796 87.26238,11.315675 C 89.160997,38.302499 73.858021,51.914608 56.7447,64.121399 L 71.448523,73.58972 109.64785,41.843276 Z" fill="#889C40" stroke="#000000" stroke-miterlimit="4.6462" stroke-width="2.05644" id="leaf9"/>
  <path d="m 56.120637,9.9763001 1.48539,-5.0787148 20.507905,4.503177 C 70.152416,37.603138 79.520259,58.535659 90.711623,78.703239 L 76.364238,82.808925 52.450016,32.955983 Z" fill="#8BA041" stroke="#000000" stroke-miterlimit="4.6462" stroke-width="2.04087" id="leaf8"/>
  <path d="m 119.02298,27.524476 -0.32745,-4.483394 -21.438068,-4.17163 C 98.789857,43.660373 84.718401,56.35807 69.004511,67.780872 l 13.353129,8.531931 35.10988,-29.640667 z" fill="#8FA443" stroke="#000000" stroke-miterlimit="4.6462" stroke-width="1.88396" id="leaf7"/>
  <path d="m 41.686462,17.252014 0.965012,-4.896635 22.752201,1.377109 c -5.04868,27.153148 7.728872,45.2296 22.382151,62.352813 L 72.785243,81.829671 40.618991,38.992338 Z" fill="#93A945" stroke="#000000" stroke-miterlimit="4.6462" stroke-width="2.05823" id="leaf6"/>
  <path d="m 129.68376,42.255418 0.50019,-4.294724 -22.95257,-6.935374 C 104.15753,54.733308 86.120431,64.809406 66.507897,73.452341 l 13.154171,9.943476 44.610472,-23.207553 z" fill="#98AE48" stroke="#000000" stroke-miterlimit="4.6462" stroke-width="1.95511" id="leaf5"/>
  <path d="m 27.069068,27.66369 0.391457,-4.966244 25.693953,0.330517 c -1.832693,27.52426 15.035025,45.101379 33.870928,61.634764 L 71.02248,91.13064 28.936168,49.568206 Z" fill="#9EB54A" stroke="#000000" stroke-miterlimit="4.6462" stroke-width="2.18737" id="leaf4"/>
  <path d="m 137.8534,53.883375 1.25163,-4.707965 -22.12536,-9.909043 C 109.75341,65.225579 89.679965,74.634551 68.255064,82.30153 L 79.902075,94.591117 129.25313,73.218243 Z" fill="#A4BC4D" stroke="#000000" stroke-miterlimit="4.6462" stroke-width="2.08959" id="leaf3"/>
  <path d="M 63.081291,96.980817 C 44.401819,82.275154 21.599473,62.093284 8.0957963,28.077663 l 26.1401777,0.61459 c 6.20525,29.338062 25.701319,45.108705 45.790112,62.829067 z" fill="#ABC450" stroke="#000000" stroke-miterlimit="4.6462" stroke-width="2.14649" id="leaf2"/>
  <path d="M 63.839871,95.881401 C 63.562967,86.882008 101.3981,78.7853 117.71533,66.429772 c 5.18164,-3.923976 13.34247,-14.048065 13.64104,-13.933766 0.29857,0.114445 18.81648,5.811415 21.95723,6.802761 3.14043,0.991269 -23.81133,21.839969 -34.22372,28.493255 -10.41242,6.653286 -27.630147,11.0744 -29.288249,16.278048 -1.65796,5.20363 -2.109381,6.61958 -2.010173,10.83992 0.09964,4.22037 -1.868759,6.08398 -4.595524,6.54046 -5.726787,0.9586 -16.39106,-4.41709 -16.39106,-4.41709 -2.935147,-6.95837 -2.826118,-16.67162 -2.965003,-21.151959 z" fill="#B2CC54" stroke="#000000" stroke-miterlimit="4.6462" stroke-width="1.93642" id="leaf1"/>
  <path d="m 80.409673,187.32279 c 29.736997,-0.94324 8.646951,-19.17001 7.972129,-39.86257 -0.507562,-15.56622 0.772552,-41.92513 0.772552,-41.92513 l -3.573579,3.98369 -2.723588,-4.8893 -3.5343,9.16425 -5.153448,-10.38713 -1.242855,5.95282 -2.135771,7.44974 c -1.46492,-3.372 -6.162037,-11.02842 -6.162037,-11.02842 0,0 2.052989,26.00042 2.690807,42.52245 0.775513,20.08698 -16.646591,39.96515 13.090054,39.01996 z" fill="#ffffff" stroke="#000000" stroke-miterlimit="4.6462" stroke-width="2.23708" id="body"/>
  <path d="m 81.984957,152.732 c 0.02888,1.23405 -1.233649,2.26169 -2.821389,2.29533 -1.587776,0.0336 -2.898864,-0.93947 -2.928395,-2.17352 -0.02888,-1.23406 1.233685,-2.2617 2.821424,-2.29533 1.58774,-0.0336 2.898865,0.93946 2.92836,2.17352 z" stroke-linecap="round" stroke-linejoin="round" stroke-miterlimit="4.6462" stroke-width="27.961" id="eye"/>
  
  
  
  
  
  
  
  
  
  
  
  
  
  
  
  
  
  
  
  
  
  
  
  
  
  
  
  
  
  
  
  
  
  
  
  <path d="m 89.82488,151.59264 c 0.02888,1.23406 -1.233649,2.26171 -2.821425,2.29534 -1.587776,0.0336 -2.898864,-0.93947 -2.928395,-2.17352 -0.02888,-1.23405 1.233685,-2.2617 2.821424,-2.29533 1.587776,-0.0336 2.898865,0.93947 2.928396,2.17351 z" stroke-linecap="round" stroke-linejoin="round" stroke-miterlimit="4.6462" stroke-width="27.961" id="eye2"/>
  
  <path d="m 77.197051,161.99944 c 4.50585,-1.01472 7.16199,-1.66188 12.58898,-2.89003" fill="none" stroke="#000000" stroke-linecap="round" stroke-linejoin="round" stroke-width="2.31424" id="neutral" sodipodi:nodetypes="cc"/>
  

     </g>
</svg>
